<?xml version="1.0" encoding="UTF-8"?>
<svg data-bbox="0 0 67.701 67.701" xmlns="http://www.w3.org/2000/svg" viewBox="0 0 68 68" height="68" width="68" data-type="color">
    <g>
        <path fill="#C9F962" d="M67.701 21.362v24.977c0 11.798-9.564 21.362-21.362 21.362H21.362C9.564 67.701 0 58.137 0 46.339V21.362C0 9.564 9.564 0 21.362 0h24.977c11.798 0 21.362 9.564 21.362 21.362z" data-color="1"/>
        <path fill="#070E1C" d="m50.239 23.444 3.19 9.946-12.26 3.127 7.694 9.383-8.445 6.13-6.88-10.759-6.819 10.697-8.382-6.068 7.944-9.57-12.01-3.128 3.19-9.883 11.573 4.504-.814-12.26h10.447l-.876 12.822 12.448-4.941Z" data-color="2"/>
    </g>
</svg>
